<svg xmlns="http://www.w3.org/2000/svg" viewBox="0 0 64 64" role="img" aria-label="Pomba branca">
  <rect width="64" height="64" rx="14" fill="#7e4a13"/>
  <path fill="#fff" d="M49.2 17.4c-4.9.4-9.3 2.5-12.8 6.2l-2.1 2.2-12.2-8.1c-1.1-.7-2.3.6-1.5 1.6l8.7 11.1-11.4-2.7c-1.2-.3-2 1.2-1 2l10.2 7.4-9 .6c-1.2.1-1.6 1.7-.5 2.3l12.1 6.1c2.7 1.4 5.8 1.8 8.8 1.1 4.7-1.1 8.5-4.6 10-9.2l2-6.1c1.3-3.9 4.2-7.1 7.9-8.8.9-.4.7-1.8-.3-1.9l-6.2-.6 1.8-2.1c.7-.9-.2-2.1-1.3-1.7l-3.2.6z"/>
  <path fill="#f7d07a" d="M50.2 29.4l6.7-1.7-5.4 4.4c-.7.6-1.8.1-1.8-.8 0-.8.2-1.4.5-1.9z"/>
  <circle cx="41.8" cy="28.4" r="1.5" fill="#7e4a13"/>
</svg>
